# xmcd
#
# Track frame offsets:
# 150
# 14331
# 29042
# 34734
# 53123
# 66769
# 86476
# 99213
# 113035
# 127027
# 141622
# 157658
# 171328
# 183343
#
# Disc length: 2728 seconds
#
#
# Revision: 2
# Processed by: cddbd v1.5.1PL2 Copyright (c) Steve Scherf et al.
# Submitted via: FreeRIP 2.945 
#
DISCID=ba0aa60e
DTITLE=VÁRIOS - TODOS CANTAM  ZÉ DANTAS and LUIZ GONZAGA
DYEAR=2003
DGENRE=Forró
TTITLE0=o xote das meninas
TTITLE1=sabiá
TTITLE2=derramaro o gai
TTITLE3=vem morena
TTITLE4=a letra i
TTITLE5=riacho do navio
TTITLE6=acauã
TTITLE7=cintura fina
TTITLE8=riacho do imbuzeiro
TTITLE9=abc do sertão
TTITLE10=a volta da asa branca
TTITLE11=farinhada
TTITLE12=vozes da seca
TTITLE13=algodão
EXTD=
EXTT0=
EXTT1=
EXTT2=
EXTT3=
EXTT4=
EXTT5=
EXTT6=
EXTT7=
EXTT8=
EXTT9=
EXTT10=
EXTT11=
EXTT12=
EXTT13=
PLAYORDER=
